<svg xmlns="http://www.w3.org/2000/svg" viewBox="0 0 862.49 699.23"><defs><style>.cls-1,.cls-16,.cls-28,.cls-6,.cls-9{fill:#fff;}.cls-1{opacity:0.29;}.cls-2{fill:#390028;}.cls-3{fill:#a74f30;}.cls-4,.cls-5{fill:#852b0f;}.cls-27,.cls-4{opacity:0.32;}.cls-27,.cls-7{fill:#eff7fe;}.cls-8{fill:#dff5ff;}.cls-9{opacity:0.43;}.cls-10{fill:#9f9fdd;}.cls-11{fill:#c5e4ef;}.cls-12{fill:#ffa97c;}.cls-13,.cls-14{fill:#74caf3;}.cls-13{opacity:0.54;}.cls-15{opacity:0.52;}.cls-16{opacity:0.47;}.cls-17{fill:#aeade7;}.cls-18{fill:#a7b0be;}.cls-19{fill:#525f72;}.cls-20{fill:#3a4451;}.cls-21{fill:#fdbea6;}.cls-22{fill:#1c191a;}.cls-23,.cls-24{fill:#ff8e77;}.cls-24{opacity:0.46;}.cls-25{fill:#8f8fcc;}.cls-26{fill:#ff8970;}.cls-28{opacity:0.18;}</style></defs><title>Asset 4ds</title><g id="Layer_2" data-name="Layer 2"><g id="online_doctor_concept" data-name="online doctor concept"><path class="cls-1" d="M104.72,162.71c78.1-46.95,148.74-7,245.11-70.47C397.62,60.76,388,45.83,424.89,24.83,529.74-34.81,733,14.28,820.13,158.11,890,273.45,854.7,399.34,844.64,430.79c-47.53,148.53-187.48,239-311,262C272.33,741.37-14.27,506.31.55,329.68,5.39,272,44.14,199.13,104.72,162.71Z"/><path class="cls-2" d="M431.19,291.47A31.7,31.7,0,0,0,419,275.75c-.71-.49-1.45-.95-2.2-1.37a31.48,31.48,0,0,0-7.14-3c-3.34-.92-6.47-.95-8.52-4.24-1.13-1.8-1.35-4-1.62-6.1-1.34-10.49-5.27-19.91-13.49-26.87-11.78-10-31.72-15.93-51-17.86-15.62-1.56-38.38,1.92-53.17,22a12,12,0,0,0-2.12,10.52,1.39,1.39,0,0,0,.06.19c.34,1.13.78,2.4,1.33,3.76L273.55,259a21.7,21.7,0,0,0-6,25.73l3.23,7.12q-.45.48-.84.93c-1.2,1.38-2.49,2.93-3.85,4.65A37.37,37.37,0,0,0,255.94,321c-.63,13.14,6,25.21,16.88,33.39,13.32,10,26.26,20.46,37.22,32.34,9.16,9.94,23.43,16.42,39.62,16.43,19.92,0,37.58-10.42,44.94-25.51,11.25-6,19.54-15.75,22.07-27.34a33.13,33.13,0,0,0,.75-9.47c-.19-2.78-1.35-5.59-.68-8.39.82-3.46,4-5.74,6.52-8.2A32,32,0,0,0,431.19,291.47Z"/><path class="cls-3" d="M354.05,294.29c-43.54,1.53-61.44-30.12-65.55-43.82A34.66,34.66,0,0,0,284.12,263l-8,55.54A34.6,34.6,0,0,0,281,341.84h0a35.08,35.08,0,0,0,27,20.32l2.19.31-.06,11.31a22,22,0,0,0,21.8,22l6.95,0a22,22,0,0,0,22-21.81l.26-49.41a22.44,22.44,0,0,0-.13-2.47l4.55.66a14.48,14.48,0,0,0,4.13-28.67l-5.1-.73.08-.56A50,50,0,0,1,354.05,294.29Z"/><path class="cls-4" d="M355.84,330.06a34.78,34.78,0,0,1-39.38,29.45l-10.9-1.57A34.71,34.71,0,0,1,281,341.84a35.08,35.08,0,0,0,27,20.32l2.4.35a6.89,6.89,0,0,0-.11,1.21c0,5.16,5.54,9.34,12.38,9.34S335,368.88,335,363.72a6.63,6.63,0,0,0-.15-1.34A35.1,35.1,0,0,0,358.71,334l1.72-11.94-3.37-.48Z"/><path class="cls-5" d="M372,313a.59.59,0,0,1-.36-.11l-5.28-3.76a.59.59,0,0,1-.26-.45.6.6,0,0,1,.17-.49l6.06-6.22a.63.63,0,1,1,.89.88l-5.54,5.69,4.68,3.33A.62.62,0,0,1,372,313Z"/><path class="cls-5" d="M302.84,348.09a.61.61,0,0,1-.42-.16c-3.1-2.83-6.84-.83-7-.75a.62.62,0,1,1-.6-1.09s4.67-2.52,8.45.91a.64.64,0,0,1,0,.89A.67.67,0,0,1,302.84,348.09Z"/><path class="cls-2" d="M282.6,280.86a7.31,7.31,0,0,0,2.9.86c1.06.17,2.12.37,3,.57s2,.47,3,.77a7.21,7.21,0,0,0,3,.43c.86-.16,1.39-1,.72-2.43s-2.65-3.08-5.69-3.76-5.57.08-6.67,1S281.88,280.35,282.6,280.86Z"/><path class="cls-2" d="M306.73,287.58A10.28,10.28,0,0,1,311,288c1.49.35,3,.66,4.29.89s2.83.43,4.34.6a10.38,10.38,0,0,1,4.14,1c1.05.67,1.27,2.11-.35,3.56s-5.12,2.62-9.47,1.88-7.25-3.1-8.17-4.94S305.51,287.86,306.73,287.58Z"/><path class="cls-6" d="M281.86,314.92a13.67,13.67,0,0,1-2.9-.3A14.14,14.14,0,1,1,293.69,293a14.15,14.15,0,0,1-11.83,21.88Zm0-27a12.89,12.89,0,1,0,12.64,15.53h0a12.92,12.92,0,0,0-12.64-15.53Z"/><path class="cls-3" d="M300.87,293.37l-1,7a4.89,4.89,0,0,1-5.54,4.13h0a2.45,2.45,0,0,0-2.77,2.06L291,310a4.39,4.39,0,0,0,3.71,5l6.31.92"/><path class="cls-5" d="M301.06,316.56H301l-6.31-.92a5,5,0,0,1-4.24-5.69l.51-3.47a3.07,3.07,0,0,1,3.47-2.59,4.26,4.26,0,0,0,4.83-3.6l1-7a.62.62,0,0,1,.71-.53.63.63,0,0,1,.53.71l-1,7a5.52,5.52,0,0,1-6.25,4.66,1.79,1.79,0,0,0-1.34.34,1.81,1.81,0,0,0-.71,1.19l-.51,3.47a3.77,3.77,0,0,0,3.18,4.27l6.31.92a.63.63,0,0,1-.09,1.25Z"/><path class="cls-6" d="M315.53,317.67a14.33,14.33,0,0,1-2.89-.3,14.14,14.14,0,1,1,16.73-10.95h0A14.17,14.17,0,0,1,315.53,317.67Zm0-27a12.91,12.91,0,0,0-12.61,10.25,12.89,12.89,0,0,0,10,15.25,12.89,12.89,0,0,0,15.25-10h0a12.91,12.91,0,0,0-10-15.26A13.29,13.29,0,0,0,315.53,290.64Zm13.23,15.65h0Z"/><path class="cls-6" d="M329.43,300.81a.63.63,0,0,1-.61-.51.61.61,0,0,1,.49-.73l37.14-7.37a.63.63,0,0,1,.74.49.64.64,0,0,1-.49.74l-37.14,7.37Z"/><path class="cls-6" d="M302.3,301.2h-.09l-7.09-1a.62.62,0,0,1-.54-.7.63.63,0,0,1,.71-.54l7.1,1a.63.63,0,0,1-.09,1.25Z"/><path class="cls-6" d="M315.32,320.19a53.72,53.72,0,0,1-14.26,3.75c-7.14.67-2.12,12.77,8.75,12.34S321.18,319.25,315.32,320.19Z"/><path class="cls-2" d="M287.34,300.6a2.46,2.46,0,1,1-1.9-2.91A2.46,2.46,0,0,1,287.34,300.6Z"/><path class="cls-2" d="M313.13,302.34a2.46,2.46,0,1,1-1.9-2.9A2.47,2.47,0,0,1,313.13,302.34Z"/><path class="cls-5" d="M287.86,304.2a.62.62,0,0,1-.36-.12,5.78,5.78,0,0,0-5.54-.23.63.63,0,1,1-.5-1.15,7,7,0,0,1,6.77.36.64.64,0,0,1,.14.88A.62.62,0,0,1,287.86,304.2Z"/><path class="cls-5" d="M313,306.12a.61.61,0,0,1-.42-.16,4.59,4.59,0,0,0-5.29-.2.62.62,0,0,1-.85-.24.63.63,0,0,1,.25-.85,5.79,5.79,0,0,1,6.73.36.63.63,0,0,1,.05.89A.67.67,0,0,1,313,306.12Z"/><path class="cls-6" d="M416.53,396.77c-6.6-11-17.91-18.35-30.81-18.46l-21.43-.16-30,15.58-19.53-16a105.87,105.87,0,0,0-12.95.62l-91.42-17.79,18.34-43.63a4.52,4.52,0,0,0-3.42-6.21l-41.47-7a4.83,4.83,0,0,0-5.16,2.69l-25.29,53.4a33.83,33.83,0,0,0,16.89,50.78L255,447.93l.48,1.82-9.68,26.47a40.27,40.27,0,0,0,3.59,35l8.78,13.91,3.44,52.87,206.61.05,4.68-110.83Z"/><path class="cls-7" d="M266.73,406.67l-21,37.06,9.79,6,9.26-25.33A77.68,77.68,0,0,1,266.73,406.67Z"/><path class="cls-3" d="M186.48,304.28l-.25-5.92c-3.89-8.46-1.4-21.23,1.3-30.18h0l6.29,1.93s26.33-16.21,40.26-8.91c5.36,2.81-1.83,40.08-9.4,50.06Z"/><path class="cls-4" d="M209.17,263l-.37.36c-3.18,3.11-25.11,25.54-3.46,32.8,23.29,7.81,25.35-13,25.35-13"/><path class="cls-8" d="M213.6,318.2h0a10.42,10.42,0,0,1-9.32-11.42l7-69.25,20.75,2.1-7,69.25A10.41,10.41,0,0,1,213.6,318.2Z"/><path class="cls-9" d="M214.13,313.17h0c-4.7-.48-8.07-5.21-7.53-10.58l6.56-64.87,17,1.72-6.56,64.87C223.08,309.68,218.83,313.64,214.13,313.17Z"/><path class="cls-10" d="M214.49,309.47h0a7.83,7.83,0,0,1-7-8.56L212.75,249l15.54,1.57L223,302.48A7.81,7.81,0,0,1,214.49,309.47Z"/><path class="cls-11" d="M231.11,240.77l-19-1.92a4.17,4.17,0,0,1-3.73-4.57h0a4.17,4.17,0,0,1,4.57-3.73l19,1.92a4.17,4.17,0,0,1,3.73,4.57h0A4.18,4.18,0,0,1,231.11,240.77Z"/><path class="cls-9" d="M221.47,266.47a.94.94,0,0,1-1,.85.95.95,0,1,1,.19-1.89A.94.94,0,0,1,221.47,266.47Z"/><path class="cls-9" d="M215.28,278.15a.95.95,0,1,1-.85-1A.95.95,0,0,1,215.28,278.15Z"/><path class="cls-9" d="M222.42,284.36a.95.95,0,0,1-1.89-.19,1,1,0,0,1,1-.85A.94.94,0,0,1,222.42,284.36Z"/><rect class="cls-4" x="189.18" y="262.99" width="11.24" height="20.48" rx="3.93" transform="translate(-131.66 195.62) rotate(-41.14)"/><path class="cls-3" d="M191.4,251.44h0a5.4,5.4,0,0,0-.51,7.6l12,13.75a5.39,5.39,0,0,0,7.6.52h0a5.4,5.4,0,0,0,.52-7.6L199,252A5.39,5.39,0,0,0,191.4,251.44Z"/><path class="cls-3" d="M199.52,244.36h0A5.39,5.39,0,0,0,199,252l12,13.75a5.4,5.4,0,0,0,7.6.51h0a5.4,5.4,0,0,0,.51-7.6l-12-13.75A5.4,5.4,0,0,0,199.52,244.36Z"/><path class="cls-3" d="M186.68,262.19h0a5.4,5.4,0,0,0-.51,7.6l7.23,8.28a5.4,5.4,0,0,0,7.6.51h0a5.4,5.4,0,0,0,.51-7.6l-7.23-8.27A5.39,5.39,0,0,0,186.68,262.19Z"/><path class="cls-3" d="M235.34,272.59c-6.34-2.68-15.57-5.19-22.66-1.46,0,0-5.36,3.7.38,7.34s15,7,17.43,10.86c2.15,3.43,5.72-1.21,8.49-6A7.56,7.56,0,0,0,235.34,272.59Z"/><path class="cls-12" d="M363,363.85h0a28.47,28.47,0,0,0-28.4,26.51,28.47,28.47,0,0,0-28.4-26.51,45.69,45.69,0,0,0-1.61,14h0l-.27,8.68,19,89.74a2.21,2.21,0,0,0,4.22.38l35.35-88.5a7.56,7.56,0,0,0,.53-2.72C366.43,375,363,363.85,363,363.85Z"/><path class="cls-13" d="M316.38,477a.63.63,0,0,1-.54-.31l-32.26-54.92a2.78,2.78,0,0,1,1-3.81l11.3-6.32-16.86-10.26a2.31,2.31,0,0,1-.29-3.73l16.47-13.95a.64.64,0,0,1,.89.07.63.63,0,0,1-.08.89l-16.47,13.95a1.05,1.05,0,0,0,.13,1.7l18.7,11.37L285.22,419a1.51,1.51,0,0,0-.56,2.07L316.92,476a.63.63,0,0,1-.54.94Z"/><path class="cls-13" d="M338.25,480.31a.63.63,0,0,1-.37-.12.61.61,0,0,1-.13-.87L379,423.12a1.47,1.47,0,0,0,.19-1.11,1.52,1.52,0,0,0-.68-1l-12.81-8,19.19-10.5a1,1,0,0,0,.21-1.69l-15.81-14.7a.63.63,0,0,1,.85-.92L386,400a2.25,2.25,0,0,1,.71,2,2.28,2.28,0,0,1-1.18,1.74l-17.31,9.47,11,6.84a2.72,2.72,0,0,1,1.23,1.74,2.76,2.76,0,0,1-.38,2.11l-41.3,56.22A.66.66,0,0,1,338.25,480.31Z"/><path class="cls-14" d="M402.26,492.31H362a1.48,1.48,0,0,1-1.48-1.48v-6.39A1.47,1.47,0,0,1,362,483h40.28a1.47,1.47,0,0,1,1.47,1.47v6.39A1.48,1.48,0,0,1,402.26,492.31ZM362,484.22a.22.22,0,0,0-.22.22v6.39a.22.22,0,0,0,.22.22h40.28a.22.22,0,0,0,.22-.22v-6.39a.22.22,0,0,0-.22-.22Z"/><path class="cls-6" d="M334.22,412.6h0a.63.63,0,0,1-.61-.64l.44-24.62a.63.63,0,0,1,1.25,0L334.85,412A.64.64,0,0,1,334.22,412.6Z"/><g class="cls-15"><path class="cls-6" d="M429.11,216.31a11.17,11.17,0,1,1,6.87-20,11.17,11.17,0,0,1-5.49,19.89A13.07,13.07,0,0,1,429.11,216.31Zm0-19.83a9.79,9.79,0,0,0-1.08.07,8.66,8.66,0,1,0,9.66,7.53h0a8.66,8.66,0,0,0-8.58-7.6Z"/><rect class="cls-6" x="411.22" y="181.9" width="2.51" height="21.72" transform="translate(2.46 390.7) rotate(-50.82)"/><path class="cls-6" d="M402.17,188.74a4.74,4.74,0,0,1-4.69-4.15,4.74,4.74,0,1,1,9.4-1.16,4.74,4.74,0,0,1-4.12,5.28A5.83,5.83,0,0,1,402.17,188.74Zm0-7h-.28a2.25,2.25,0,0,0-1.48.85,2.21,2.21,0,0,0-.46,1.64,2.23,2.23,0,0,0,4.43-.55,2.22,2.22,0,0,0-2.21-1.95Z"/><rect class="cls-6" x="443.37" y="206.67" width="2.51" height="16.41" transform="translate(39.86 497.77) rotate(-60.74)"/><path class="cls-6" d="M453.46,223.38a3.6,3.6,0,0,1-2-.58,3.69,3.69,0,0,1,1.19-6.72h0a3.69,3.69,0,1,1,1.59,7.21A3.57,3.57,0,0,1,453.46,223.38Zm0-4.88a1.15,1.15,0,0,0-.26,0h0a1.18,1.18,0,0,0-.75.52,1.21,1.21,0,0,0-.16.89,1.2,1.2,0,0,0,.53.75,1.16,1.16,0,0,0,.89.16,1.2,1.2,0,0,0,.91-1.42,1.17,1.17,0,0,0-1.16-.93Z"/><rect class="cls-6" x="410.97" y="215.73" width="13.25" height="2.5" transform="translate(-37.12 338.23) rotate(-42.39)"/><path class="cls-6" d="M411.29,226.88l-.41,0a3.94,3.94,0,1,1,4.32-3.52,3.89,3.89,0,0,1-1.43,2.66A4,4,0,0,1,411.29,226.88Zm0-5.38a1.41,1.41,0,0,0-.9.33,1.36,1.36,0,0,0-.52,1,1.43,1.43,0,0,0,1.28,1.58,1.44,1.44,0,0,0,1.57-1.28h0a1.44,1.44,0,0,0-1.28-1.58Z"/><rect class="cls-6" x="427.21" y="186.51" width="17.61" height="2.5" transform="translate(109.59 532.45) rotate(-69.86)"/><path class="cls-6" d="M439.83,181.46a3.35,3.35,0,0,1-1.2-.22,3.42,3.42,0,1,1,1.2.22Zm0-4.43a1,1,0,0,0-.4.08,1,1,0,0,0-.5.54,1,1,0,0,0,0,.74,1,1,0,0,0,.54.5,1,1,0,0,0,.74,0h0a1,1,0,0,0,.47-1.28A1,1,0,0,0,439.83,177Z"/><rect class="cls-6" x="437.74" y="196.41" width="17.61" height="2.51" transform="translate(-40.63 231.33) rotate(-27.83)"/><path class="cls-6" d="M455.92,196.42a3.62,3.62,0,0,1-1-.15h0a3.47,3.47,0,1,1,2.64-.24A3.43,3.43,0,0,1,455.92,196.42Zm-.29-2.55a1,1,0,0,0,.57-1.83.95.95,0,0,0-1.2.63A1,1,0,0,0,455.63,193.87Z"/><path class="cls-6" d="M107.21,363.1a11.17,11.17,0,0,1-1.35-22.25,11.18,11.18,0,0,1,12.46,9.71h0A11.17,11.17,0,0,1,108.61,363,11,11,0,0,1,107.21,363.1Zm0-19.83a9.77,9.77,0,0,0-1.07.07,8.66,8.66,0,1,0,9.66,7.53h0A8.67,8.67,0,0,0,107.24,343.27Z"/><rect class="cls-6" x="89.34" y="328.69" width="2.51" height="21.72" transform="translate(-229.84 195.27) rotate(-50.82)"/><path class="cls-6" d="M80.3,335.53a4.73,4.73,0,0,1-.58-9.43A4.73,4.73,0,0,1,85,330.21h0a4.73,4.73,0,0,1-4.12,5.29A5.63,5.63,0,0,1,80.3,335.53Zm0-7H80a2.23,2.23,0,1,0,.55,4.43,2.22,2.22,0,0,0,1.93-2.49h0a2.22,2.22,0,0,0-2.2-1.95Z"/><rect class="cls-6" x="121.49" y="353.46" width="2.5" height="16.41" transform="translate(-252.78 291.99) rotate(-60.74)"/><path class="cls-6" d="M131.58,370.17a3.69,3.69,0,0,1-3.6-2.9,3.7,3.7,0,0,1,2.81-4.4h0a3.69,3.69,0,0,1,4.41,2.81,3.71,3.71,0,0,1-2.81,4.4A3.72,3.72,0,0,1,131.58,370.17Zm-.25-4.85a1.19,1.19,0,0,0,.52,2.32,1.19,1.19,0,0,0,.9-1.42,1.17,1.17,0,0,0-1.42-.9Z"/><rect class="cls-6" x="89.09" y="362.52" width="13.25" height="2.5" transform="translate(-220.22 159.63) rotate(-42.39)"/><path class="cls-6" d="M89.41,373.67l-.41,0a4,4,0,1,1,.41,0Zm0-5.38a1.44,1.44,0,0,0-.15,2.87,1.44,1.44,0,0,0,.29-2.86Z"/><rect class="cls-6" x="105.33" y="333.3" width="17.61" height="2.5" transform="translate(-239.25 326.5) rotate(-69.86)"/><path class="cls-6" d="M118,328.24a3.47,3.47,0,1,1,1.2-6.72,3.47,3.47,0,0,1,.25,6.41h0A3.54,3.54,0,0,1,118,328.24Zm0-4.43a1,1,0,1,0,.4,1.84,1,1,0,0,0,.47-1.28,1,1,0,0,0-.54-.5A1,1,0,0,0,118,323.81Z"/><rect class="cls-6" x="115.86" y="343.2" width="17.61" height="2.5" transform="translate(-146.44 98.1) rotate(-27.84)"/><path class="cls-6" d="M134,343.21a3.35,3.35,0,0,1-1-.16,3.4,3.4,0,0,1-2-1.69,3.47,3.47,0,1,1,3.07,1.85Zm0-4.43a1,1,0,0,0-.92.68,1,1,0,0,0,.63,1.2h0a1,1,0,1,0,.58-1.83A1,1,0,0,0,134,338.78Z"/><path class="cls-6" d="M798.35,282.35a11.17,11.17,0,1,1,6.87-20,11.16,11.16,0,0,1-5.49,19.88A10.89,10.89,0,0,1,798.35,282.35Zm0-19.83a7.83,7.83,0,0,0-1.08.07,8.66,8.66,0,1,0,9.66,7.53h0a8.66,8.66,0,0,0-8.58-7.6Z"/><rect class="cls-6" x="780.46" y="247.93" width="2.51" height="21.72" transform="translate(87.22 701.21) rotate(-50.82)"/><path class="cls-6" d="M771.41,254.78a4.74,4.74,0,0,1-4.69-4.15,4.74,4.74,0,0,1,4.12-5.28,4.67,4.67,0,0,1,3.49,1,4.74,4.74,0,0,1-2.33,8.44Zm0-7h-.28a2.22,2.22,0,0,0-1.09,4,2.23,2.23,0,0,0,3.13-.38,2.27,2.27,0,0,0,.45-1.65h0a2.18,2.18,0,0,0-.84-1.48A2.21,2.21,0,0,0,771.42,247.82Z"/><rect class="cls-6" x="812.61" y="272.71" width="2.51" height="16.41" transform="translate(171.03 853.68) rotate(-60.74)"/><path class="cls-6" d="M822.71,289.42a3.7,3.7,0,0,1-3.12-5.68,3.65,3.65,0,0,1,2.32-1.62h0a3.69,3.69,0,0,1,4.4,2.81,3.69,3.69,0,0,1-2.81,4.4A3.55,3.55,0,0,1,822.71,289.42Zm0-4.88a1.15,1.15,0,0,0-.26,0h0a1.15,1.15,0,0,0-.75.52,1.19,1.19,0,0,0,1.26,1.8,1.22,1.22,0,0,0,.75-.52,1.19,1.19,0,0,0-1-1.83Z"/><rect class="cls-6" x="780.21" y="281.77" width="13.25" height="2.5" transform="translate(14.88 604.41) rotate(-42.39)"/><path class="cls-6" d="M780.53,292.92l-.41,0a3.94,3.94,0,1,1,4.32-3.52h0A3.93,3.93,0,0,1,780.53,292.92Zm0-5.38a1.46,1.46,0,1,0,.15,0Z"/><rect class="cls-6" x="796.45" y="252.54" width="17.61" height="2.5" transform="translate(289.68 922.4) rotate(-69.86)"/><path class="cls-6" d="M809.08,247.49a3.46,3.46,0,1,1,3.14-4.91,3.39,3.39,0,0,1,.1,2.65,3.45,3.45,0,0,1-1.8,2h0A3.52,3.52,0,0,1,809.08,247.49Zm0-4.43a1,1,0,1,0,.4,1.84h0a.92.92,0,0,0,.5-.54,1,1,0,0,0,0-.74A1,1,0,0,0,809.07,243.06Z"/><rect class="cls-6" x="806.98" y="262.45" width="17.61" height="2.51" transform="translate(-28.75 411.35) rotate(-27.83)"/><path class="cls-6" d="M825.16,262.46a3.31,3.31,0,0,1-1-.16h0a3.4,3.4,0,0,1-2-1.69,3.48,3.48,0,0,1,1.45-4.69,3.47,3.47,0,0,1,4.93,4.1,3.48,3.48,0,0,1-3.31,2.44Zm0-4.43a1,1,0,0,0-.44.11.92.92,0,0,0-.47.57.93.93,0,0,0,.06.73.92.92,0,0,0,.57.47h0a.93.93,0,0,0,.73-.07.9.9,0,0,0,.47-.56,1,1,0,0,0-.63-1.21A1.35,1.35,0,0,0,825.15,258Z"/><path class="cls-6" d="M448.65,327.78a5.17,5.17,0,0,1-.68,0,6,6,0,0,1-5.32-6.67,6,6,0,0,1,6.67-5.32,5.89,5.89,0,0,1,2.28.74,6,6,0,0,1-3,11.29Zm0-9.56a3.52,3.52,0,0,0-2.75,5.72,3.48,3.48,0,0,0,2.36,1.31,3.53,3.53,0,0,0,3.9-3.11h0a3.52,3.52,0,0,0-1.78-3.47,3.47,3.47,0,0,0-1.33-.43A2.68,2.68,0,0,0,448.64,318.22Z"/><path class="cls-6" d="M472.53,289.11a5.17,5.17,0,0,1-.68,0,6,6,0,0,1-5.32-6.67,6,6,0,0,1,6.67-5.32,5.89,5.89,0,0,1,2.28.74,6,6,0,0,1,3,5.93h0A6,6,0,0,1,472.53,289.11Zm0-9.56a3.54,3.54,0,0,0-3.5,3.13,3.53,3.53,0,1,0,7,.79h0a3.52,3.52,0,0,0-1.78-3.47,3.47,3.47,0,0,0-1.33-.43Z"/><path class="cls-6" d="M487.16,330.91a5.27,5.27,0,0,1-.68,0,6,6,0,1,1,1.35-12,5.89,5.89,0,0,1,2.28.74,6,6,0,0,1-2.95,11.29Zm0-9.56a3.53,3.53,0,1,0,3.51,3.92h0a3.53,3.53,0,0,0-1.77-3.47,3.7,3.7,0,0,0-1.34-.43Z"/><path class="cls-6" d="M513.82,269.25c-.23,0-.46,0-.69,0a6,6,0,0,1-5.32-6.67,6,6,0,0,1,6.67-5.32,6,6,0,0,1,5.32,6.67h0a6.05,6.05,0,0,1-6,5.36Zm0-9.56a3.52,3.52,0,0,0-3.5,3.13,3.53,3.53,0,0,0,3.11,3.9,3.54,3.54,0,0,0,3.9-3.11h0a3.52,3.52,0,0,0-1.78-3.47,3.47,3.47,0,0,0-1.33-.43A2.68,2.68,0,0,0,513.8,259.69Z"/><path class="cls-6" d="M486.9,319.8a2.32,2.32,0,0,1-2.11-1.33l-13.32-28.14-19.26,29.1-2.09-1.38,19.44-29.37a2.29,2.29,0,0,1,2.1-1A2.32,2.32,0,0,1,473.6,289l13.3,28.09,23.75-50.71,2.27,1.07L489,318.47a2.29,2.29,0,0,1-2.1,1.33Z"/><path class="cls-6" d="M725.68,261.49a8.55,8.55,0,0,1-2.75-.49c-7.24-2.43-17-14.2-24.34-29.28-8.46-17.44-12.54-37.84-4.71-41.81a6.85,6.85,0,0,1,5.45-.14c7.24,2.43,17,14.2,24.34,29.28,8.47,17.44,12.54,37.85,4.71,41.82A6,6,0,0,1,725.68,261.49Zm-29.09-69.7a3.53,3.53,0,0,0-1.58.35c-4.88,2.47-3.68,18.89,5.83,38.49,6.94,14.28,16.35,25.8,22.89,28a4.53,4.53,0,0,0,3.52,0c4.88-2.47,3.68-18.89-5.83-38.48-6.94-14.29-16.35-25.81-22.89-28A6.28,6.28,0,0,0,696.59,191.79Z"/><path class="cls-6" d="M688.59,247.05a19.77,19.77,0,0,1-6.19-.86,7.78,7.78,0,0,1-4.78-3.84c-3.6-7.41,8.29-20.67,27.06-30.19,14-7.09,27.79-10.06,35.18-7.57a7.74,7.74,0,0,1,4.78,3.83c3.6,7.41-8.29,20.67-27.06,30.19h0C706.88,244,696.28,247.05,688.59,247.05Zm45.11-40.83c-7.25,0-17.61,3-27.88,8.17-18.72,9.49-28.52,21.56-25.94,26.87a5.37,5.37,0,0,0,3.32,2.55c6.68,2.25,20-.74,33.24-7.43h0c18.72-9.49,28.53-21.55,25.95-26.87a5.4,5.4,0,0,0-3.33-2.55A17.05,17.05,0,0,0,733.7,206.22Z"/><path class="cls-6" d="M732.89,244.58c-7.23,0-16.48-1.84-26.1-5.36-20.08-7.34-33.94-19.16-31.55-26.89a7.2,7.2,0,0,1,4-4.28c6.87-3.41,21.1-2,36.24,3.5,20.08,7.35,33.94,19.16,31.55,26.89a7.25,7.25,0,0,1-4,4.29A23.49,23.49,0,0,1,732.89,244.58ZM689.3,208.7a20.84,20.84,0,0,0-9,1.59,4.84,4.84,0,0,0-2.71,2.78c-1.72,5.56,9.93,16.45,30,23.8,14.31,5.23,28.08,6.68,34.27,3.61a4.84,4.84,0,0,0,2.71-2.78c1.72-5.56-9.93-16.45-30-23.79C705.3,210.5,696.22,208.7,689.3,208.7Z"/><path class="cls-6" d="M711.52,230.67a6,6,0,1,1,5.9-7h0a6,6,0,0,1-4.92,6.87A6.37,6.37,0,0,1,711.52,230.67Zm0-9.45a3.66,3.66,0,0,0-.57.05,3.47,3.47,0,1,0,4,2.85h0A3.48,3.48,0,0,0,711.53,221.22Z"/><path class="cls-6" d="M297.81,207.58a10.25,10.25,0,0,1-3.31-.59c-8.88-3-20.91-17.48-29.93-36.08-11.88-24.46-14.5-47-6-51.34a8.25,8.25,0,0,1,6.52-.15c8.88,3,20.91,17.49,29.94,36.08h0c11.88,24.46,14.5,47,6,51.34A6.92,6.92,0,0,1,297.81,207.58Zm-36-86.24a4.42,4.42,0,0,0-2.08.47c-6.29,3.19-5,23.24,7.08,48,8.61,17.74,20.33,32.05,28.48,34.8a5.88,5.88,0,0,0,4.59,0c6.29-3.19,4.94-23.25-7.08-48-8.62-17.74-20.33-32-28.49-34.8A8,8,0,0,0,261.82,121.34Z"/><path class="cls-6" d="M251.93,189.72a24.14,24.14,0,0,1-7.57-1.06,9.26,9.26,0,0,1-5.74-4.59c-4.38-9,10.27-25.26,33.35-37,17.23-8.73,34.22-12.4,43.29-9.35a9.34,9.34,0,0,1,5.75,4.59c4.38,9-10.27,25.26-33.35,37h0C274.46,186,261.4,189.72,251.93,189.72Zm55.82-50.52c-9,0-21.9,3.68-34.65,10.14-23.31,11.82-35.48,26.94-32.23,33.64a6.91,6.91,0,0,0,4.29,3.31c8.34,2.8,25-.9,41.36-9.22h0c23.31-11.82,35.48-26.93,32.23-33.63a6.88,6.88,0,0,0-4.29-3.31A21.2,21.2,0,0,0,307.75,139.2Z"/><path class="cls-6" d="M306.73,186.66c-8.9,0-20.31-2.27-32.19-6.62-24.7-9-41.76-23.48-38.85-32.9a8.6,8.6,0,0,1,4.78-5.12c8.44-4.18,26-2.48,44.61,4.35,24.7,9,41.77,23.48,38.86,32.9a8.69,8.69,0,0,1-4.79,5.13C316.09,185.92,311.82,186.66,306.73,186.66ZM252.8,142.27c-4.64,0-8.51.65-11.22,2a6.3,6.3,0,0,0-3.5,3.62c-2.17,7,12.31,20.66,37.32,29.81,17.78,6.5,34.91,8.29,42.64,4.46a6.22,6.22,0,0,0,3.5-3.62c2.17-7-12.31-20.66-37.32-29.81C272.68,144.5,261.41,142.27,252.8,142.27Z"/><path class="cls-6" d="M280.29,169.44a7,7,0,1,1,1.17-.09A7.68,7.68,0,0,1,280.29,169.44Zm0-11.68a5,5,0,0,0-.76.06,4.64,4.64,0,1,0,.76-.06Z"/><path class="cls-10" d="M36.89,262.75a3.69,3.69,0,1,1-3.69-3.69A3.69,3.69,0,0,1,36.89,262.75Z"/><path class="cls-10" d="M339.47,200.86a3.69,3.69,0,1,1-3.68-3.68A3.69,3.69,0,0,1,339.47,200.86Z"/><path class="cls-10" d="M671.35,276a3.69,3.69,0,1,1-3.68-3.68A3.69,3.69,0,0,1,671.35,276Z"/><path class="cls-10" d="M187.17,144.84a3.69,3.69,0,1,1-3.69-3.68A3.69,3.69,0,0,1,187.17,144.84Z"/><path class="cls-10" d="M720.14,106.38a3.69,3.69,0,1,1-3.69-3.69A3.69,3.69,0,0,1,720.14,106.38Z"/><circle class="cls-10" cx="155.31" cy="266.87" r="1.84"/><path class="cls-10" d="M567.45,151.37a3.69,3.69,0,1,1-3.69-3.68A3.69,3.69,0,0,1,567.45,151.37Z"/><path class="cls-10" d="M56.58,396.33a3.69,3.69,0,1,1-3.68-3.68A3.69,3.69,0,0,1,56.58,396.33Z"/><path class="cls-10" d="M861.62,395.39a3.69,3.69,0,1,1-3.69-3.69A3.69,3.69,0,0,1,861.62,395.39Z"/><path class="cls-10" d="M777.17,206.6a3.69,3.69,0,1,1-3.68-3.69A3.68,3.68,0,0,1,777.17,206.6Z"/><path class="cls-10" d="M773.49,415.65a1.85,1.85,0,1,1-1.85-1.84A1.84,1.84,0,0,1,773.49,415.65Z"/><circle class="cls-10" cx="479.47" cy="236.73" r="1.84"/><circle class="cls-10" cx="33.87" cy="525.59" r="1.84"/><circle class="cls-16" cx="299.46" cy="145.11" r="1.84"/><path class="cls-6" d="M370,137.43a3.69,3.69,0,1,1-3.69-3.69A3.69,3.69,0,0,1,370,137.43Z"/><path class="cls-6" d="M810.47,151.82a2.85,2.85,0,1,1-2.85-2.85A2.85,2.85,0,0,1,810.47,151.82Z"/><path class="cls-6" d="M519.44,203.75a3.69,3.69,0,1,1-3.68-3.69A3.68,3.68,0,0,1,519.44,203.75Z"/><path class="cls-6" d="M712.47,312.42a2.27,2.27,0,1,1-2.27-2.27A2.27,2.27,0,0,1,712.47,312.42Z"/><circle class="cls-6" cx="743.37" cy="414.11" r="2.27"/><path class="cls-6" d="M196.31,444.61a3.69,3.69,0,1,1-3.68-3.69A3.69,3.69,0,0,1,196.31,444.61Z"/><path class="cls-6" d="M435.25,383a3.69,3.69,0,1,1-3.68-3.69A3.68,3.68,0,0,1,435.25,383Z"/><path class="cls-6" d="M44.47,127a3.69,3.69,0,1,1-3.68-3.69A3.68,3.68,0,0,1,44.47,127Z"/><circle class="cls-6" cx="218.9" cy="204.24" r="3.15"/></g><path class="cls-8" d="M229.61,557.43h0a10.69,10.69,0,0,0,10.85-10.53V476.57h-21.7V546.9A10.69,10.69,0,0,0,229.61,557.43Z"/><path class="cls-9" d="M229.6,552.32h0c4.92,0,8.9-4.42,8.9-9.87V476.57H220.7v65.88C220.7,547.9,224.68,552.32,229.6,552.32Z"/><path class="cls-14" d="M229.61,548.56h0a8,8,0,0,0,8.13-7.89V488H221.49v52.69A8,8,0,0,0,229.61,548.56Z"/><path class="cls-11" d="M219.6,477.85h19.86a4.34,4.34,0,0,0,4.34-4.34h0a4.34,4.34,0,0,0-4.34-4.34H219.6a4.34,4.34,0,0,0-4.34,4.34h0A4.34,4.34,0,0,0,219.6,477.85Z"/><path class="cls-9" d="M226.88,505.47a1,1,0,1,0,1-1A1,1,0,0,0,226.88,505.47Z"/><path class="cls-9" d="M232.07,518.21a1,1,0,1,0,1-1A1,1,0,0,0,232.07,518.21Z"/><circle class="cls-9" cx="225.01" cy="523.89" r="0.99"/><path class="cls-8" d="M184.6,562.74h0a11,11,0,0,0,10.84-11.23V476.57H173.75v74.94A11,11,0,0,0,184.6,562.74Z"/><path class="cls-9" d="M184.58,557.29h0c4.92,0,8.9-4.71,8.9-10.52v-70.2h-17.8v70.2C175.68,552.58,179.67,557.29,184.58,557.29Z"/><path class="cls-17" d="M184.6,553.28h0a8.27,8.27,0,0,0,8.12-8.41V488.73H176.47v56.14A8.27,8.27,0,0,0,184.6,553.28Z"/><path class="cls-11" d="M174.58,477.85h19.86a4.34,4.34,0,0,0,4.34-4.34h0a4.34,4.34,0,0,0-4.34-4.34H174.58a4.34,4.34,0,0,0-4.34,4.34h0A4.34,4.34,0,0,0,174.58,477.85Z"/><path class="cls-9" d="M181.86,505.47a1,1,0,1,0,2,0,1,1,0,1,0-2,0Z"/><path class="cls-9" d="M187.05,518.21a1,1,0,1,0,1-1A1,1,0,0,0,187.05,518.21Z"/><path class="cls-9" d="M179,523.89a1,1,0,1,0,1-1A1,1,0,0,0,179,523.89Z"/><path class="cls-8" d="M138,567.81h0c6,0,10.85-5.36,10.85-12v-80h-21.7v80C127.11,562.45,132,567.81,138,567.81Z"/><path class="cls-9" d="M138,562h0c4.91,0,8.9-5,8.9-11.22V475.86h-17.8v74.91C129.05,557,133,562,138,562Z"/><path class="cls-12" d="M138,557.72h0c4.49,0,8.13-4,8.13-9V488.83H129.83v59.92C129.83,553.7,133.47,557.72,138,557.72Z"/><path class="cls-11" d="M128,477.85h19.86a4.34,4.34,0,0,0,4.34-4.34h0a4.34,4.34,0,0,0-4.34-4.34H128a4.34,4.34,0,0,0-4.34,4.34h0A4.34,4.34,0,0,0,128,477.85Z"/><path class="cls-9" d="M135.23,505.47a1,1,0,1,0,1-1A1,1,0,0,0,135.23,505.47Z"/><path class="cls-9" d="M140.42,518.21a1,1,0,1,0,1-1A1,1,0,0,0,140.42,518.21Z"/><path class="cls-9" d="M132.37,523.89a1,1,0,0,0,2,0,1,1,0,1,0-2,0Z"/><rect class="cls-18" x="253.96" y="497.17" width="6.33" height="75.07" transform="translate(514.24 1069.42) rotate(180)"/><rect class="cls-18" x="104.72" y="497.17" width="6.33" height="75.07" transform="translate(215.76 1069.42) rotate(180)"/><rect class="cls-19" x="100.33" y="493.75" width="166.02" height="10.11" rx="3.34" transform="translate(366.68 997.61) rotate(180)"/><path class="cls-20" d="M103.23,528.32h157.9a1.9,1.9,0,0,0,1.91-1.9h0a1.91,1.91,0,0,0-1.91-1.91H103.23a1.91,1.91,0,0,0-1.9,1.91h0A1.9,1.9,0,0,0,103.23,528.32Z"/><path class="cls-19" d="M113.61,578.43H101.68a3.37,3.37,0,0,1-3.37-3.37h0a3.38,3.38,0,0,1,3.37-3.37h11.93a3.39,3.39,0,0,1,3.38,3.37h0A3.38,3.38,0,0,1,113.61,578.43Z"/><path class="cls-19" d="M263.65,578.43H251.71a3.37,3.37,0,0,1-3.37-3.37h0a3.38,3.38,0,0,1,3.37-3.37h11.94a3.38,3.38,0,0,1,3.37,3.37h0A3.38,3.38,0,0,1,263.65,578.43Z"/><path class="cls-8" d="M362,564.19l-25.71-44.05-.15-31.61-23.23.1.14,30.37-26,45.54a9.77,9.77,0,0,0,8.52,14.61l58.06-.27A9.77,9.77,0,0,0,362,564.19Z"/><path class="cls-9" d="M357.64,562.37l-25-42-.15-30.77-15.62.07.14,30.33-24.89,42.62a8.35,8.35,0,0,0,7.45,12.49l50.76-.24A8.34,8.34,0,0,0,357.64,562.37Z"/><path class="cls-17" d="M332.12,540.39a6.44,6.44,0,0,1,7.83,2.55l2.85,4.56,6,10.45a8.48,8.48,0,0,1-7.41,12.69l-33.81-.16a8.49,8.49,0,0,1-7.29-12.76l7.21-12.45c2.9-4.95,9.82-5.58,15.18-3.53C325.29,542.74,328.58,541.79,332.12,540.39Z"/><path class="cls-17" d="M327.59,540.34a2.21,2.21,0,1,1-2.21-2.22A2.21,2.21,0,0,1,327.59,540.34Z"/><path class="cls-17" d="M319.93,536a1.66,1.66,0,1,1-1.66-1.65A1.66,1.66,0,0,1,319.93,536Z"/><circle class="cls-17" cx="327.19" cy="531.75" r="1.66"/><path class="cls-11" d="M334.56,489.63l-19.8.1a4.07,4.07,0,0,1-4.34-3.72h0a4.07,4.07,0,0,1,4.31-3.76l19.8-.09a4.06,4.06,0,0,1,4.34,3.72h0C338.88,487.94,337,489.62,334.56,489.63Z"/><circle class="cls-9" cx="315.38" cy="553.84" r="2.49"/><path class="cls-9" d="M332.68,548.31a1.39,1.39,0,1,1-1.39-1.38A1.38,1.38,0,0,1,332.68,548.31Z"/><path class="cls-9" d="M332.56,559.37a1.38,1.38,0,1,1-1.38-1.39A1.38,1.38,0,0,1,332.56,559.37Z"/><path class="cls-7" d="M446.19,433.82,412.33,536.21a31.8,31.8,0,0,0,30.46,42.26l45.52-.63L456.58,443.47Z"/><path class="cls-2" d="M656.47,201.62a21.78,21.78,0,0,0-26.79-14.8,13.79,13.79,0,0,0-24.66,0c-1.1-.12-2.2-.2-3.31-.22l-31.78-.7c-19.87-.43-36.34,14.8-36.79,34l-.35,15.1a12.39,12.39,0,0,0-5.27,9.92,12.2,12.2,0,0,0,11.74,12.62,11.9,11.9,0,0,0,9.87-4.94l2.09,0c.42,0,.83,0,1.24.09,10.35-8.05,17.7-25,17.7-25,1.35,5.18,8.54,8.08,17.94,9.57a15.46,15.46,0,0,0,19.57,2.17c.37-.24.72-.5,1.06-.77H611a19.48,19.48,0,0,0,38.08-5.92,20.26,20.26,0,0,0-.79-6.11A22.78,22.78,0,0,0,656.47,201.62Z"/><path class="cls-21" d="M568.56,221s-.15,15.81-10.17,23.85c-.39,0-.79-.08-1.2-.09l-6.65-.15-4.51-.1-5.83-.13c-.41,0-.82,0-1.22,0a13.73,13.73,0,0,0-12.81,13.38l-.09,4.15a13.72,13.72,0,0,0,13.41,14l5.73.13-1.74,77.19A24.07,24.07,0,0,0,567,377.85l14,.32a24.07,24.07,0,0,0,24.61-23.53l.47-21.05a39.76,39.76,0,0,0,27.66-37l.11-4.81h0l.92-40.8.48-21.2C616,231.45,571.77,233.69,568.56,221Z"/><path class="cls-22" d="M598.39,271.57a2.58,2.58,0,1,1-5.16-.19,2.58,2.58,0,0,1,5.16.19Z"/><path class="cls-22" d="M629.4,275.27a2.58,2.58,0,1,1-2.48-2.68A2.58,2.58,0,0,1,629.4,275.27Z"/><path class="cls-23" d="M605.65,313.09a.63.63,0,0,1-.45-1.06s3.82-3.79,8.48-1.53a.63.63,0,0,1-.55,1.13c-3.86-1.87-7,1.25-7,1.28A.66.66,0,0,1,605.65,313.09Z"/><path class="cls-2" d="M602.85,251.84a11.1,11.1,0,0,1-4.4,1.35c-1.62.26-3.24.57-4.63.89s-3,.73-4.57,1.19-3.17,1-4.54.69-2.13-1.58-1.12-3.69,4-4.73,8.63-5.79,8.49.08,10.16,1.53S604,251.06,602.85,251.84Z"/><path class="cls-23" d="M536.73,265.4a.63.63,0,0,1-.25-1.2l4.75-2-3.51-7.9a.62.62,0,0,1,1.14-.51l4,9.06L537,265.35A.59.59,0,0,1,536.73,265.4Z"/><path class="cls-23" d="M608.56,285.18a9,9,0,0,1-1-.05,26.07,26.07,0,0,1-4.93-1,.63.63,0,1,1,.36-1.2,25.84,25.84,0,0,0,4.69.95,7.41,7.41,0,0,0,6.35-2.16,4.33,4.33,0,0,0,1-3.91l-4.17-17.49A.62.62,0,1,1,612,260l4.17,17.49a5.48,5.48,0,0,1-1.26,5A8.37,8.37,0,0,1,608.56,285.18Z"/><path class="cls-23" d="M599.41,295.88a13.06,13.06,0,0,1-4.64-.82,14.5,14.5,0,0,1-7.72-7.29.62.62,0,0,1,.33-.82.62.62,0,0,1,.82.33,13.48,13.48,0,0,0,7,6.61c3.55,1.33,7.71.86,12.37-1.39a.62.62,0,0,1,.83.29.63.63,0,0,1-.29.84A20.2,20.2,0,0,1,599.41,295.88Z"/><path class="cls-23" d="M598.54,276.14a.6.6,0,0,1-.43-.18c-2.8-2.63-5-.85-5.06-.77a.63.63,0,0,1-.88-.07.62.62,0,0,1,.06-.88s3.1-2.62,6.74.81a.63.63,0,0,1,0,.89A.62.62,0,0,1,598.54,276.14Z"/><path class="cls-23" d="M629.92,279.59a.67.67,0,0,1-.44-.17c-2.79-2.64-5-.85-5.05-.78a.62.62,0,1,1-.82-.94s3.1-2.63,6.74.81a.63.63,0,0,1,0,.89A.61.61,0,0,1,629.92,279.59Z"/><path class="cls-6" d="M595.74,281.94h0a14.14,14.14,0,0,1-14.12-14.15h0a14.15,14.15,0,0,1,14.14-14.13h0a14.14,14.14,0,0,1,0,28.28Zm0-27a12.89,12.89,0,0,0,0,25.77h0a12.89,12.89,0,0,0,0-25.77Z"/><path class="cls-6" d="M630.44,286.36h0a14.14,14.14,0,1,1,0-28.27h0a14.14,14.14,0,1,1,0,28.27Zm0-27a12.89,12.89,0,0,0,0,25.77h0a12.89,12.89,0,1,0,0-25.77Z"/><path class="cls-2" d="M637.8,255.58a9.74,9.74,0,0,0-4.06-.35c-1.45.07-2.91.1-4.18.09s-2.72-.09-4.17-.19a9.79,9.79,0,0,0-4.06.25c-1.1.44-1.56,1.76-.29,3.4s4.34,3.35,8.55,3.41,7.34-1.64,8.52-3.2S638.9,256.05,637.8,255.58Z"/><rect class="cls-6" x="612.62" y="263.88" width="1.25" height="7.91" transform="translate(286.69 851.92) rotate(-84.38)"/><path class="cls-6" d="M584.47,261.16a.59.59,0,0,1-.29-.07L551.9,244a.63.63,0,0,1,.58-1.11L584.77,260a.64.64,0,0,1,.26.85A.63.63,0,0,1,584.47,261.16Z"/><path class="cls-24" d="M594.59,329.34l-7.54-.17a38.41,38.41,0,0,1-37.53-39.27l.31-13.74-4.51-.11-.42,18.56A39.82,39.82,0,0,0,572,333.24a2,2,0,0,0,0,.25c0,6.75,7.55,12.23,16.87,12.23s16.7-5.36,16.86-12a39.78,39.78,0,0,0,28-37.09l.11-4.81A38.42,38.42,0,0,1,594.59,329.34Z"/><path class="cls-6" d="M606.31,339.32l-19,25.94L544.9,339.32H513.19c-22.37,0-40.94,13.44-44.67,31.11L438.57,471.2l.12,0-17.5,59C416.67,550,430.43,570,451.93,575h0a37,37,0,0,0,15.2.32v2.83l203.56-.44,3.67-178.81C674.35,366,646,339.32,606.31,339.32Z"/><path class="cls-13" d="M565.17,493.28a.63.63,0,0,1-.56-.33l-54.88-106.1a2.71,2.71,0,0,1-.26-2.09,2.75,2.75,0,0,1,1.31-1.69l11.3-6.33-16.86-10.26a2.3,2.3,0,0,1-.29-3.72l16.47-13.95a.64.64,0,0,1,.89.07.62.62,0,0,1-.08.88l-16.47,14a1.05,1.05,0,0,0-.37.88,1,1,0,0,0,.5.81l18.7,11.38-13.18,7.38a1.51,1.51,0,0,0-.56,2.07l54.89,106.13a.62.62,0,0,1-.27.84A.58.58,0,0,1,565.17,493.28Z"/><path class="cls-13" d="M598.85,495a.56.56,0,0,1-.25-.05.62.62,0,0,1-.32-.82l48.3-109.26a1.51,1.51,0,0,0,.1-1.19,1.46,1.46,0,0,0-.78-.87l-13.59-6.56,18-12.5a1,1,0,0,0,0-1.7L633,349.12a.63.63,0,0,1-.13-.88.61.61,0,0,1,.87-.12L651.05,361a2.24,2.24,0,0,1,.92,1.88,2.28,2.28,0,0,1-1,1.85L634.78,376l11.67,5.63a2.76,2.76,0,0,1,1.26,3.73L599.43,494.62A.63.63,0,0,1,598.85,495Z"/><path class="cls-14" d="M666.45,450.37H631.92a1.48,1.48,0,0,1-1.48-1.47v-6.39a1.48,1.48,0,0,1,1.48-1.47h34.53a1.48,1.48,0,0,1,1.48,1.47v6.39A1.48,1.48,0,0,1,666.45,450.37Zm-34.53-8.08a.22.22,0,0,0-.22.22v6.39a.22.22,0,0,0,.22.22h34.53a.22.22,0,0,0,.22-.22v-6.39a.22.22,0,0,0-.22-.22Z"/><polygon class="cls-14" points="544.9 339.32 523.38 339.31 585.73 527.59 628.41 341.06 606.14 339.02 587.35 365.18 544.9 339.32"/><polygon class="cls-10" points="571.43 386.55 562 456.4 585.87 530.39 602.09 456.4 592.06 387.28 571.43 386.55"/><path class="cls-25" d="M570.7,362.75,566,383a4,4,0,0,0,.93,3.6l12.88,14.29a4,4,0,0,0,6.18-.26l11.54-15.23a4,4,0,0,0,.74-3.19l-3.68-19a4,4,0,0,0-3.87-3.25l-16-.31A4,4,0,0,0,570.7,362.75Z"/><path class="cls-10" d="M570.7,358.77,566,379.05a4,4,0,0,0,.93,3.6l12.88,14.29a4,4,0,0,0,6.18-.26l11.54-15.23a4,4,0,0,0,.74-3.19l-3.68-19a4,4,0,0,0-3.87-3.25l-16-.31A4,4,0,0,0,570.7,358.77Z"/><path class="cls-6" d="M555.41,384.91a1.47,1.47,0,0,1-.36,0,1.79,1.79,0,0,1-1.14-.81L532.43,348a.62.62,0,1,1,1.07-.64L555,383.41a.47.47,0,0,0,.71.15l9.62-6.81a.62.62,0,0,1,.72,1l-9.62,6.82A1.73,1.73,0,0,1,555.41,384.91Z"/><path class="cls-6" d="M607.88,381.76a1.66,1.66,0,0,1-1.11-.43l-9.23-8.24a.63.63,0,0,1,.84-.94l9.22,8.25a.43.43,0,0,0,.39.09.42.42,0,0,0,.29-.27l11.42-32.13a.62.62,0,0,1,.8-.38.64.64,0,0,1,.38.8l-11.42,32.13a1.68,1.68,0,0,1-1.16,1.07A2,2,0,0,1,607.88,381.76Z"/><path class="cls-7" d="M730.38,486.91l-45-156.11-39.5,7.26L654.33,469c2.49,16.23,23.93,33.19,40,29.75l21.15-4.53"/><path class="cls-6" d="M733.47,485.58l-45-156.11-41.4,7.23,16.15,137.15a28.52,28.52,0,0,0,34.17,23.57l21.16-4.53"/><path class="cls-24" d="M639.72,289.9a37.88,37.88,0,0,0-24.85,5.88,6.81,6.81,0,0,0-1.34,1c-2.4,3.69.71,10,5.11,9.69,1.26-.1,11.84-6.38,11.84-6.38s-7,2.27-10.42,7.43a10.41,10.41,0,0,0,.52,12.06l1,1.3.32-.56a16.94,16.94,0,0,1,8.78-7.6L635,311.1s-14.78,5.6-13.18,13.21,4.81,6.42,4.81,6.42,5.21-7.5,12.82-7.14c0,0-20.33,6.18-13.91,16.77,5.12,8.45,19.8,6.78,25.53,5.75a2.66,2.66,0,0,0,2.18-2.8h0a4.22,4.22,0,0,0-2.35-3.48l-7.18-3.54,20.78,4.46a17.35,17.35,0,0,0,18.18-7.48l3.64-5.57-5.51-13.84a36.45,36.45,0,0,0-29.89-22.74Z"/><path class="cls-21" d="M641.93,291.67a37.88,37.88,0,0,0-24.85,5.88,6.81,6.81,0,0,0-1.34,1c-2.4,3.69.71,10,5.11,9.69,1.26-.1,11.85-6.38,11.85-6.38s-7,2.27-10.43,7.43a10.43,10.43,0,0,0,.52,12.06l1,1.3.32-.57a17,17,0,0,1,8.79-7.59l4.28-1.63s-14.78,5.59-13.18,13.2,4.81,6.43,4.81,6.43,5.21-7.5,12.82-7.14c0,0-20.33,6.18-13.91,16.77,5.12,8.45,19.8,6.77,25.54,5.75a2.66,2.66,0,0,0,2.17-2.8h0a4.23,4.23,0,0,0-2.35-3.49l-7.18-3.53,20.78,4.46A17.37,17.37,0,0,0,684.84,335l3.64-5.57L683,315.63a36.45,36.45,0,0,0-29.89-22.74Z"/><path class="cls-26" d="M645.74,326a13.68,13.68,0,0,0-4.69,0,17.62,17.62,0,0,0-4.54,1.42,18.4,18.4,0,0,0-2.07,1.18c-.33.23-.68.43-1,.67l-.94.75a8.34,8.34,0,0,0-.9.79l-.86.83c-.56.58-1.07,1.2-1.6,1.79l0,.06a.73.73,0,0,1-1.09-1h0c.57-.63,1.13-1.27,1.72-1.87l.94-.86a7.72,7.72,0,0,1,1-.83l1-.78c.34-.25.71-.46,1.07-.69A20.22,20.22,0,0,1,636,326.2a18.63,18.63,0,0,1,4.9-1.43,14.41,14.41,0,0,1,5.15.1.55.55,0,0,1,.42.66.56.56,0,0,1-.65.43Z"/><path class="cls-26" d="M639,313a13.89,13.89,0,0,0-4.61,1.11,17.18,17.18,0,0,0-4.09,2.46,17,17,0,0,0-1.75,1.64c-.27.29-.56.57-.81.88l-.73.95a7.5,7.5,0,0,0-.69,1l-.65,1c-.4.69-.76,1.42-1.14,2.12l0,.07a.73.73,0,0,1-1,.29.72.72,0,0,1-.29-1v0c.42-.74.82-1.48,1.26-2.2l.72-1.05a9.65,9.65,0,0,1,.76-1l.81-1c.28-.32.6-.61.89-.92a20.31,20.31,0,0,1,1.91-1.68,18.09,18.09,0,0,1,4.44-2.48,14.49,14.49,0,0,1,5-1,.43.43,0,0,1,.44.42.44.44,0,0,1-.41.44Z"/><path class="cls-26" d="M636.64,301.88a13.76,13.76,0,0,0-4.68.77,17.61,17.61,0,0,0-4.27,2.14,19.06,19.06,0,0,0-1.86,1.5c-.29.27-.6.53-.87.82l-.81.89a7.69,7.69,0,0,0-.76.93l-.72.95c-.46.67-.86,1.36-1.3,2l0,.07a.75.75,0,0,1-1,.22.73.73,0,0,1-.22-1v0c.48-.7.93-1.41,1.43-2.1l.79-1a9.46,9.46,0,0,1,.84-1l.88-.91c.3-.3.64-.57,1-.85a20.43,20.43,0,0,1,2-1.54,19,19,0,0,1,4.61-2.14,14.53,14.53,0,0,1,5.06-.65.43.43,0,0,1,0,.85Z"/><path class="cls-21" d="M575.47,525l22.17-3.92a12,12,0,0,1,10.74,3.5l16.35,17.06a8.32,8.32,0,0,1-.56,12.07l-3.75,3.24-7-14,9.93,19.95a3.65,3.65,0,0,1-2.76,5.24h0a6.44,6.44,0,0,1-5.84-2.25l-14.94-18,14.2,22.53a2.16,2.16,0,0,1-2.26,3.28h0a31.61,31.61,0,0,1-18.15-10.88l-4-4.87a35.76,35.76,0,0,1-32.2,10.45S534.71,541.05,575.47,525Z"/><path class="cls-23" d="M621.56,556a1,1,0,0,0,.06-1l-7.82-14.23a1,1,0,0,0-1.31-.38,1,1,0,0,0-.38,1.31l7.81,14.23a1,1,0,0,0,1.32.38A1.08,1.08,0,0,0,621.56,556Z"/><path class="cls-23" d="M603.75,548.32a1,1,0,0,0,0-1.14,1,1,0,0,0-1.36-.2s-1.57,1.18-3.3,2.53a1,1,0,0,0-.17,1.36,1,1,0,0,0,1.36.16c1.71-1.33,3.27-2.5,3.27-2.5A.84.84,0,0,0,603.75,548.32Z"/><path class="cls-23" d="M614.75,540.13a1,1,0,0,0-1.37-1.33s-1.57,1.18-3.3,2.53a1,1,0,0,0,1.18,1.52c1.72-1.34,3.28-2.5,3.28-2.51A1,1,0,0,0,614.75,540.13Z"/><path class="cls-23" d="M591.51,559a1,1,0,0,0-.06-1.19,14.44,14.44,0,0,1-1.79-3,1,1,0,0,0-1.26-.51,1,1,0,0,0-.51,1.27,16.27,16.27,0,0,0,2.1,3.51,1,1,0,0,0,1.36.1A1.29,1.29,0,0,0,591.51,559Z"/><polyline class="cls-27" points="505.49 501.57 475.44 510.97 502.26 513.35"/><polygon class="cls-7" points="523.24 436.95 514.69 505.04 585.58 523.17 501.87 513.14 523.24 436.95"/><path class="cls-20" d="M805.55,444.91H671.78a10.62,10.62,0,0,0-10.25,7.75l-30.82,111H541.08a2,2,0,0,0-1.7,3.15l7.08,10.55H779.75l36.06-118.72A10.65,10.65,0,0,0,805.55,444.91Z"/><path class="cls-19" d="M791.24,577.61H638.4L673,452.94a10.62,10.62,0,0,1,10.25-7.76H817.05A10.65,10.65,0,0,1,827.3,458.9Z"/><path class="cls-6" d="M735.26,505.12a11,11,0,0,1,11,11v2.11a11,11,0,0,1-11,11h-2.13a11,11,0,0,1-11-11V516.1a11,11,0,0,1,11-11h2.13m0-2.8h-2.13a13.87,13.87,0,0,0-13.88,13.78v2.11A13.87,13.87,0,0,0,733.13,532h2.13a13.87,13.87,0,0,0,13.87-13.79V516.1a13.86,13.86,0,0,0-13.87-13.78Z"/><path class="cls-28" d="M735,512.09a5,5,0,0,1,5,4.93v1a5,5,0,0,1-5,4.93h-1a5,5,0,0,1-5-4.93v-1a5,5,0,0,1,5-4.93h1m0-1.26h-1a6.23,6.23,0,0,0-6.24,6.19v1a6.24,6.24,0,0,0,6.24,6.19h1a6.24,6.24,0,0,0,6.24-6.19v-1a6.23,6.23,0,0,0-6.24-6.19Z"/><path class="cls-6" d="M212.12,242.74a7.7,7.7,0,1,1,7.7-7.7A7.7,7.7,0,0,1,212.12,242.74Zm0-14.15a6.45,6.45,0,1,0,6.45,6.45A6.45,6.45,0,0,0,212.12,228.59Z"/><path class="cls-6" d="M212.12,235.67a.63.63,0,0,1-.44-.19L161.9,185.7H70.64a.63.63,0,1,1,0-1.25h91.78l50.14,50.15a.61.61,0,0,1,0,.88A.63.63,0,0,1,212.12,235.67Z"/><path class="cls-6" d="M110.56,198.82H72.29a.63.63,0,1,1,0-1.25h38.27a.63.63,0,1,1,0,1.25Z"/><path class="cls-6" d="M161.13,198.82H122.85a.63.63,0,0,1,0-1.25h38.28a.63.63,0,0,1,0,1.25Z"/><path class="cls-6" d="M110.56,226.33H72.29a.63.63,0,1,1,0-1.25h38.27a.63.63,0,1,1,0,1.25Z"/><path class="cls-6" d="M161.13,226.33H122.85a.63.63,0,0,1,0-1.25h38.28a.63.63,0,0,1,0,1.25Z"/><path class="cls-6" d="M133,213.16H72.29a.63.63,0,1,1,0-1.25H133a.63.63,0,1,1,0,1.25Z"/><path class="cls-6" d="M161.13,213.16H140a.63.63,0,1,1,0-1.25h21.14a.63.63,0,0,1,0,1.25Z"/><path class="cls-6" d="M93.8,240.68H72.66a.63.63,0,0,1,0-1.26H93.8a.63.63,0,0,1,0,1.26Z"/><path class="cls-6" d="M181.68,475.45a6.31,6.31,0,1,1,6.31-6.31A6.32,6.32,0,0,1,181.68,475.45Zm0-11.37a5.06,5.06,0,1,0,5,5.06A5.07,5.07,0,0,0,181.68,464.08Z"/><path class="cls-6" d="M181.68,469.77a.64.64,0,0,1-.48-.22l-40-46.56H68a.63.63,0,0,1,0-1.26h73.83l.19.22,40.15,46.78a.64.64,0,0,1-.47,1Z"/><path class="cls-6" d="M100.07,433.53H69.31a.63.63,0,0,1,0-1.26h30.76a.63.63,0,0,1,0,1.26Z"/><path class="cls-6" d="M140.7,433.53H109.94a.63.63,0,0,1,0-1.26H140.7a.63.63,0,1,1,0,1.26Z"/><path class="cls-6" d="M100.07,455.64H69.31a.63.63,0,0,1,0-1.26h30.76a.63.63,0,0,1,0,1.26Z"/><path class="cls-6" d="M140.7,455.64H109.94a.63.63,0,0,1,0-1.26H140.7a.63.63,0,1,1,0,1.26Z"/><path class="cls-6" d="M118.1,445.05H69.31a.63.63,0,0,1,0-1.25H118.1a.63.63,0,1,1,0,1.25Z"/><path class="cls-6" d="M140.7,445.05h-17a.63.63,0,0,1,0-1.25h17a.63.63,0,1,1,0,1.25Z"/><path class="cls-6" d="M86.6,467.16h-17a.63.63,0,0,1,0-1.25h17a.63.63,0,0,1,0,1.25Z"/><path class="cls-7" d="M701.92,464a7.7,7.7,0,1,1,7.7-7.7A7.71,7.71,0,0,1,701.92,464Zm0-14.14a6.45,6.45,0,1,0,6.45,6.44A6.45,6.45,0,0,0,701.92,449.84Z"/><path class="cls-7" d="M701.42,456.91h-.11a.63.63,0,0,1-.51-.73L727.42,308l116-.79h0a.62.62,0,0,1,.62.62.61.61,0,0,1-.62.63l-114.94.79L702,456.39A.61.61,0,0,1,701.42,456.91Z"/><path class="cls-7" d="M831.73,323.77H793.46a.63.63,0,1,1,0-1.25h38.27a.63.63,0,1,1,0,1.25Z"/><path class="cls-7" d="M781.17,323.77H742.9a.63.63,0,1,1,0-1.25h38.27a.63.63,0,0,1,0,1.25Z"/><path class="cls-7" d="M831.73,348.36H793.46a.63.63,0,0,1,0-1.26h38.27a.63.63,0,0,1,0,1.26Z"/><path class="cls-7" d="M781.17,348.36H742.9a.63.63,0,0,1,0-1.26h38.27a.63.63,0,0,1,0,1.26Z"/><path class="cls-7" d="M831.73,336.59H771a.63.63,0,0,1,0-1.26h60.71a.63.63,0,0,1,0,1.26Z"/><path class="cls-7" d="M764,336.59H742.9a.63.63,0,0,1,0-1.26H764a.63.63,0,0,1,0,1.26Z"/><path class="cls-7" d="M831.73,360.12H793.46a.63.63,0,0,1-.63-.63.63.63,0,0,1,.63-.63h38.27a.63.63,0,0,1,.63.63A.63.63,0,0,1,831.73,360.12Z"/><path class="cls-7" d="M781.17,360.12H742.9a.63.63,0,0,1-.63-.63.63.63,0,0,1,.63-.63h38.27a.63.63,0,0,1,.62.63A.63.63,0,0,1,781.17,360.12Z"/><path class="cls-7" d="M831.73,384.7H793.46a.63.63,0,1,1,0-1.25h38.27a.63.63,0,1,1,0,1.25Z"/><path class="cls-7" d="M781.17,384.7H742.9a.63.63,0,1,1,0-1.25h38.27a.63.63,0,0,1,0,1.25Z"/><path class="cls-7" d="M831.73,372.93H771a.63.63,0,1,1,0-1.25h60.71a.63.63,0,1,1,0,1.25Z"/><path class="cls-7" d="M764,372.93H742.9a.63.63,0,1,1,0-1.25H764a.63.63,0,1,1,0,1.25Z"/><path class="cls-7" d="M831.36,397.52H810.22a.63.63,0,1,1,0-1.26h21.14a.63.63,0,0,1,0,1.26Z"/></g></g></svg>